<svg id="Capa_1" enable-background="new 0 0 512 512" height="512" viewBox="0 0 512 512" width="512" xmlns="http://www.w3.org/2000/svg" xmlns:xlink="http://www.w3.org/1999/xlink"><linearGradient id="SVGID_1_" gradientUnits="userSpaceOnUse" x1="256" x2="256" y1="512" y2="0"><stop offset="0" stop-color="#fd5900"/><stop offset="1" stop-color="#ffde00"/></linearGradient><g><g><path d="m256 121c-74.439 0-135 60.561-135 135 0 .957.012 1.91.036 2.861 1.529 73.123 61.481 132.139 134.964 132.139 74.439 0 135-60.561 135-135s-60.561-135-135-135zm9.839 239.535c33.92-13.499 57.96-46.661 57.96-85.335 0-42.149-34.291-76.44-76.439-76.44-35.374 0-64.152 28.779-64.152 64.152 0 29.953 24.368 54.321 54.321 54.321 8.284 0 15-6.716 15-15s-6.716-15-15-15c-13.411 0-24.321-10.911-24.321-24.321 0-18.832 15.32-34.152 34.152-34.152 25.606 0 46.439 20.833 46.439 46.44 0 34.077-27.724 61.8-61.8 61.8-44.663 0-81-36.336-81-81 0-57.897 47.103-105 105-105s105 47.103 105 105c.001 54.579-41.859 99.558-95.16 104.535zm-9.839-269.535c8.284 0 15-6.716 15-15v-61c0-8.284-6.716-15-15-15s-15 6.716-15 15v61c0 8.284 6.716 15 15 15zm0 330c-8.284 0-15 6.716-15 15v61c0 8.284 6.716 15 15 15s15-6.716 15-15v-61c0-8.284-6.716-15-15-15zm-165-165c0-8.284-6.716-15-15-15h-61c-8.284 0-15 6.716-15 15s6.716 15 15 15h61c8.284 0 15-6.716 15-15zm406-15h-61c-8.284 0-15 6.716-15 15s6.716 15 15 15h61c8.284 0 15-6.716 15-15s-6.716-15-15-15zm-378.886 131.673-42.427 42.426c-5.858 5.857-5.858 15.355 0 21.213 5.857 5.858 15.355 5.858 21.213 0l42.427-42.426c5.858-5.857 5.858-15.355 0-21.213-5.856-5.858-15.354-5.859-21.213 0zm275.772-233.346 42.427-42.426c5.858-5.857 5.858-15.355 0-21.213-5.856-5.858-15.354-5.858-21.213 0l-42.427 42.426c-5.858 5.857-5.858 15.355 0 21.213 5.857 5.858 15.355 5.858 21.213 0zm0 233.346c-5.857-5.858-15.355-5.858-21.213 0s-5.858 15.355 0 21.213l42.427 42.426c5.857 5.857 15.355 5.858 21.213 0s5.858-15.355 0-21.213zm-275.772-233.346c5.857 5.857 15.355 5.858 21.213 0s5.858-15.355 0-21.213l-42.427-42.426c-5.857-5.858-15.355-5.858-21.213 0s-5.858 15.355 0 21.213z" fill="url(#SVGID_1_)"/></g></g></svg>